#!OML:ASF E:/inclinewalkrobotboard/Project1/Captureday1/Session1/subject1.ASF
:FULLY-SPECIFIED
:DEGREES
121
root 0 0 0 -2.166702339900054 -3.7975343798494046 0.5044872400497558
lowerback 7.4673754647654915 1.6018201943860304 -2.51027534820996
upperback 1.9107366299760784 1.9900479701214586 -0.07376291533390411
thorax -2.2322418349326894 1.0476416558191015 1.2184148047136891
lowerneck -9.111335611990608 -5.520350375441635 -6.450159579428567
upperneck 30.9704996123187 -8.659360004341675 6.0827266874781944
head 11.57658761161967 -3.9522392286487746 2.019485970422618
rclavicle -3.0139319797676656E-15 1.7774999554059208E-15
rhumerus -10.011099087257165 4.143332989385415 -79.92419891183792
rradius 51.81133669346697
rwrist -21.496532588316885
rhand -41.83039807214476 15.189261808993647
rfingers 7.125019999999951
rthumb -14.700348789385671 -14.242037008755855
lclavicle -6.706521279326408E-15 1.385563234546196E-15
lhumerus -30.777715771495497 11.59018489879791 77.49666920965126
lradius 24.838579406917805
lwrist -4.749014508088195
lhand -24.108341195203337 21.968237660489496
lfingers 7.125019999999954
lthumb 2.373614911380197 51.90430356225429
rfemur 1.5011735942889515 8.416468779039292 34.57651467290685
rtibia 26.711438491191757
rfoot -20.8509760964825 -9.174143026131837
rtoes 4.748530782348682
lfemur -30.485566404521734 2.52817585640779 -12.8762590484552
ltibia 50.147778613184855
lfoot -5.579130830353432 -3.430361585219897
ltoes -6.9921571340263835
122
root 0 0 0 -2.138947598994686 -3.766157579899128 0.5107344324875798
lowerback 7.492796038419117 1.6121255004382582 -2.5201019451409317
upperback 1.9352453182831035 2.0018143284069088 -0.07997455240667317
thorax -2.22118708012069 1.0541812794521648 1.2148346768870408
lowerneck -9.079697589190268 -5.53446013668769 -6.480958389204268
upperneck 30.910853336990296 -8.67292736671319 6.137665019745611
head 11.558803183338338 -3.9592831997897875 2.040759750791048
rclavicle -2.7772426075717154E-15 1.7573366107044817E-15
rhumerus -10.079932445075517 4.183381613049954 -79.9600753596244
rradius 51.746850025995045
rwrist -21.473561540512286
rhand -41.850125061975845 15.261664672727475
rfingers 7.125019999999951
rthumb -14.718546111091225 -14.169462993736836
lclavicle -6.577790440345946E-15 1.4136924937936874E-15
lhumerus -30.875495758148872 11.70069228377401 77.3163062925542
lradius 24.799351682579818
lwrist -4.806066037145387
lhand -24.19587377696355 21.9333527921912
lfingers 7.125019999999955
lthumb 2.2896823983922348 51.870511611556054
rfemur 2.20929239732652 8.451233526764977 34.6318708499685
rtibia 26.468614003622264
rfoot -20.999986170802355 -9.15988069534514
rtoes 4.363871808925467
lfemur -31.401854830696024 1.9937020602648587 -12.838175526529502
ltibia 46.32035602914904
lfoot -5.579748910324343 -3.2131106568569994
ltoes -6.52288854107791
123
root 0 0 0 -2.1203259465639626 -3.7433116283610444 0.5130397019973583
lowerback 7.519313234776227 1.6173072076437363 -2.5271972456440444
upperback 1.94419508339888 2.0073769789395106 -0.08220182456977743
thorax -2.227708295428043 1.057080531703637 1.2147448621556078
lowerneck -9.086000830738527 -5.543176136857956 -6.495561561795036
upperneck 30.880078281433743 -8.678928910135745 6.169787835913548
head 11.551811989876448 -3.962143946852134 2.053955683273105
rclavicle -2.485763946985117E-15 1.7130699381782784E-15
rhumerus -10.001338737300497 4.033024117476959 -79.96441832334517
rradius 51.460413861016654
rwrist -21.399345560124548
rhand -41.880693714976836 15.390266264245176
rfingers 7.125019999999951
rthumb -14.745491729054464 -14.039141800111107
lclavicle -6.413920058272738E-15 1.3985966272129527E-15
lhumerus -30.9545870611849 11.803632136129522 77.1637848805633
lradius 24.76882670092026
lwrist -4.850445559240461
lhand -24.280218711622066 21.897129159619663
lfingers 7.125019999999956
lthumb 2.208828535903894 51.83548428049405
rfemur 2.4797911374102584 8.459417110393051 34.641360615326164
rtibia 26.562021950906278
rfoot -20.907830300263473 -9.129080362088292
rtoes 3.999273793376033
lfemur -31.88827022581801 1.5364590782126353 -12.927468224039098
ltibia 43.14053864919545
lfoot -5.357369050854893 -3.3135681600850813
ltoes -5.96022412946347
124
root 0 0 0 -2.109671377061222 -3.729157926009059 0.5120316608671625
lowerback 7.546547803492494 1.617767084903998 -2.5316451883075493
upperback 1.9400684671220363 2.0072203639016992 -0.08087884710234305
thorax -2.24889870368468 1.0566742537023275 1.2177835044262095
lowerneck -9.12292591115725 -5.546824944191388 -6.4954983350650775
upperneck 30.87273379440281 -8.677986279276041 6.181939354394715
head 11.553264076455065 -3.961274101649467 2.0600832996293894
rclavicle -2.1933587309223157E-15 1.6601801518661647E-15
rhumerus -9.808023817773059 3.7396159322675135 -79.94309272042507
rradius 51.028534717482685
rwrist -21.286797675162344
rhand -41.92127923860383 15.549721440656828
rfingers 7.12501999999995
rthumb -14.781048741892455 -13.876583233476596
lclavicle -6.24483242335337E-15 1.3585196694507377E-15
lhumerus -31.008250375827046 11.886650301644753 77.05366170143179
lradius 24.747988495264533
lwrist -4.8808819437934945
lhand -24.34869771026607 21.86512316707984
lfingers 7.125019999999957
lthumb 2.143216002863371 51.804605302577514
rfemur 2.371960884083126 8.441492863179036 34.61816176696603
rtibia 26.964785637145944
rfoot -20.61694587430202 -9.087114964772304
rtoes 3.6938050506562847
lfemur -31.983718456619847 1.2153164679674298 -13.140354884159596
ltibia 40.95706875411214
lfoot -4.970881676314348 -3.675399687640331
ltoes -5.352130822858102
125
root 0 0 0 -2.105995840178811 -3.7254756344806528 0.5069432607653754
lowerback 7.582701555912956 1.6115262207782854 -2.534415637237445
upperback 1.9194057496478583 1.9985908518779119 -0.07421552112953478
thorax -2.2935894313664993 1.0514421157778795 1.2266802204211404
lowerneck -9.204523423050748 -5.544750433628822 -6.476121716539941
upperneck 30.89654178598985 -8.668192873699745 6.171698377033573
head 11.56611856446928 -3.955657984351673 2.0586601048833617
rclavicle -1.8510976153776917E-15 1.5852555403787543E-15
rhumerus -9.394800225308078 3.159234371786554 -79.87607825945413
rradius 50.27513279001334
rwrist -21.091043053682814
rhand -41.98311524457301 15.790491582460719
rfingers 7.125019999999949
rthumb -14.834918265989817 -13.630061332778165
lclavicle -6.048063238877162E-15 1.2826410781935983E-15
lhumerus -31.044175709170254 11.975150287607633 76.96447385686045
lradius 24.741895818344833
lwrist -4.889856836975589
lhand -24.4338054498969 21.823704634265624
lfingers 7.125019999999957
lthumb 2.061646540479054 51.76462476693071
rfemur 1.2125251266314963 8.354574819548843 34.4912735208137
rtibia 28.25809312475957
rfoot -19.790911227049044 -9.083422733018828
rtoes 3.563228370029486
lfemur -31.52233898006199 1.0273103023449135 -13.640072565442054
ltibia 39.704226611672944
lfoot -4.298104767455062 -4.5143476737210495
ltoes -4.519530036704333
126
root 0 0 0 -2.1091272994887245 -3.731524233999175 0.5028690188332101
lowerback 7.600084372152362 1.6051721610209726 -2.5344827935965437
upperback 1.9027649077157056 1.9902749656732457 -0.06875568327564041
thorax -2.3223777821167273 1.0466322961831105 1.2333593616035334
lowerneck -9.257507529747471 -5.540598967787314 -6.4581109676629485
upperneck 30.923286847927223 -8.65974419897313 6.154804803410792
head 11.577190947789749 -3.951020393696794 2.0535890039688374
rclavicle -1.65830148489045E-15 1.5372227046718047E-15
rhumerus -9.074312854651318 2.746976242610925 -79.81124304282199
rradius 49.7948559678807
rwrist -20.95148280291415
rhand -42.019960764424184 15.940726156315446
rfingers 7.125019999999947
rthumb -14.866511994688981 -13.475794229502814
lclavicle -5.919899593227494E-15 1.205938517311463E-15
lhumerus -31.019435356300182 11.976115649248873 76.99617715896973
lradius 24.753959694522106
lwrist -4.872836162280642
lhand -24.439065022742877 21.815460738848202
lfingers 7.125019999999957
lthumb 2.0566351822699125 51.75680070535896
rfemur -0.2948424700220986 8.263583109757942 34.31969058220765
rtibia 29.517258568461436
rfoot -19.00634606842659 -9.162100369115603
rtoes 3.7390429887756778
lfemur -30.9166699387687 1.062508335363523 -14.035922029023729
ltibia 39.93165704656515
lfoot -3.8934459140967332 -5.139686920683586
ltoes -4.073763777487661
127
root 0 0 0 -2.1165317344406214 -3.745798253120703 0.49893140405920805
lowerback 7.61012793884077 1.5972284900167757 -2.5336079275731107
upperback 1.8861840220687989 1.9800616716617148 -0.06275484920229091
thorax -2.3466147545113856 1.0409547303693605 1.240652843054951
lowerneck -9.301515552925672 -5.534669166291551 -6.437817987057829
upperneck 30.960526180187294 -8.651163218370638 6.131012677332206
head 11.590125654811471 -3.946447183924476 2.045386116489237
rclavicle -1.5264169162921035E-15 1.4853305545218743E-15
rhumerus -8.757832630669697 2.3527890258474473 -79.73944697671246
rradius 49.35435052395855
rwrist -20.82904934065372
rhand -42.043758219455256 16.06670546077704
rfingers 7.125019999999946
rthumb -14.886177945633007 -13.3464921638122
lclavicle -5.83468277301239E-15 1.1157608113452128E-15
lhumerus -30.965323023228624 11.947111068029159 77.08127396675948
lradius 24.78368713974565
lwrist -4.830262672858493
lhand -24.428363867769548 21.81478740078018
lfingers 7.125019999999957
lthumb 2.0668860881486273 51.75616422007141
rfemur -2.500603403288147 8.150767712894051 34.05513403948431
rtibia 31.066689405363128
rfoot -18.003549029190026 -9.315978360272235
rtoes 4.118333178739519
lfemur -30.10313515896064 1.2052992569735306 -14.458978383042247
ltibia 40.85004458732933
lfoot -3.5680073166608457 -5.800979946982364
ltoes -3.7900937117649676
